<?xml version="1.0" encoding="utf-8"?>
<!-- Generator: Adobe Illustrator 21.1.0, SVG Export Plug-In . SVG Version: 6.00 Build 0)  -->
<svg version="1.1" id="Layer_1" xmlns="http://www.w3.org/2000/svg" xmlns:xlink="http://www.w3.org/1999/xlink" x="0px" y="0px"
	 viewBox="0 0 1024 1024" style="enable-background:new 0 0 1024 1024;" xml:space="preserve">
<style type="text/css">
	.st0{display:none;}
</style>
<polygon points="226.6,649 302.6,174 321.6,174 "/>
<polygon points="200.2,649 276.2,174 295.2,174 "/>
<polygon points="251.9,649 327.9,174 346.9,174 "/>
<polygon points="277.2,649 353.2,174 372.2,174 "/>
<polygon points="302.6,649 378.6,174 397.6,174 "/>
<polygon points="327.9,649 403.9,174 422.9,174 "/>
<polygon points="431.3,174 390.9,376 494.7,649 545.3,649 659.3,376.7 703.7,649 824,649 741.7,174 621.3,174 526.3,427.3 "/>
<g>
	<path d="M191.3,769.4V700h14.6c7,0,12.5,0.7,16.5,2.1c4.3,1.3,8.3,3.6,11.8,6.9c7.2,6.5,10.7,15.1,10.7,25.8
		c0,10.7-3.7,19.3-11.2,25.9c-3.7,3.3-7.7,5.6-11.8,6.9c-3.8,1.3-9.3,1.9-16.3,1.9H191.3z M201.8,759.6h4.7c4.7,0,8.6-0.5,11.7-1.5
		c3.1-1,5.9-2.7,8.5-5c5.2-4.7,7.7-10.8,7.7-18.4c0-7.6-2.5-13.8-7.6-18.5c-4.6-4.2-11.3-6.3-20.3-6.3h-4.7V759.6z"/>
	<path d="M296.1,749.9h-31.4c0.3,3.6,1.4,6.5,3.5,8.6c2.1,2.1,4.7,3.1,8,3.1c2.5,0,4.6-0.6,6.3-1.8c1.6-1.2,3.5-3.4,5.5-6.7l8.5,4.8
		c-1.3,2.2-2.7,4.2-4.2,5.8c-1.5,1.6-3,2.9-4.7,4c-1.7,1-3.5,1.8-5.4,2.3c-1.9,0.5-4.1,0.7-6.3,0.7c-6.5,0-11.8-2.1-15.7-6.3
		c-4-4.2-5.9-9.8-5.9-16.8c0-6.9,1.9-12.5,5.8-16.8c3.9-4.2,9-6.3,15.4-6.3c6.4,0,11.5,2.1,15.3,6.2c3.7,4.1,5.6,9.7,5.6,17
		L296.1,749.9z M285.7,741.6c-1.4-5.4-4.8-8.1-10.2-8.1c-1.2,0-2.4,0.2-3.5,0.6c-1.1,0.4-2.1,0.9-2.9,1.6c-0.9,0.7-1.6,1.6-2.3,2.5
		c-0.6,1-1.1,2.1-1.4,3.4H285.7z"/>
	<path class="st0" d="M335.1,769.4l14.6-74.7l23.8,54l24.7-54l13.1,74.7h-10.7l-6.7-41.9l-20.6,45.1l-20-45.2l-7.5,42H335.1z"/>
	<path d="M338,769.3l11.8-69.3h12.1l13.9,42.6l13.8-42.6h12.1l11.8,69.3h-12.2l-6-45.5l-18.4,45.5h-3.2l-17.5-45.5l-6,45.5H338z"/>
	<path d="M434.3,725.6v25.1c0,7.3,2.9,10.9,8.6,10.9c5.7,0,8.6-3.6,8.6-10.9v-25.1h10.1V751c0,3.5-0.4,6.5-1.3,9.1
		c-0.8,2.3-2.3,4.3-4.4,6.2c-3.4,3-7.8,4.5-13,4.5c-5.2,0-9.6-1.5-13-4.5c-2.1-1.8-3.6-3.9-4.5-6.2c-0.8-2-1.3-5.1-1.3-9.1v-25.4
		H434.3z"/>
	<path d="M499.8,733.1l-8.4,4.5c-1.3-2.7-3-4-4.9-4c-0.9,0-1.7,0.3-2.4,0.9c-0.7,0.6-1,1.4-1,2.4c0,1.7,1.9,3.3,5.8,5
		c5.4,2.3,9,4.4,10.8,6.4c1.9,1.9,2.8,4.6,2.8,7.9c0,4.2-1.6,7.8-4.7,10.6c-3,2.7-6.7,4-11,4c-7.3,0-12.5-3.6-15.6-10.7l8.6-4
		c1.2,2.1,2.1,3.4,2.7,4c1.2,1.1,2.7,1.7,4.4,1.7c3.4,0,5.1-1.6,5.1-4.7c0-1.8-1.3-3.5-4-5c-1-0.5-2-1-3.1-1.5c-1-0.5-2.1-1-3.1-1.5
		c-2.9-1.4-5-2.9-6.2-4.3c-1.5-1.8-2.3-4.2-2.3-7.1c0-3.8,1.3-7,3.9-9.4c2.7-2.5,5.9-3.7,9.7-3.7
		C492.9,724.4,497.1,727.3,499.8,733.1z"/>
	<path d="M545.8,727.5V741c-2.3-2.8-4.4-4.8-6.2-5.8c-1.8-1.1-3.9-1.6-6.3-1.6c-3.8,0-7,1.3-9.5,4c-2.5,2.7-3.8,6-3.8,10
		c0,4.1,1.2,7.5,3.6,10.1c2.5,2.6,5.6,4,9.4,4c2.4,0,4.6-0.5,6.4-1.6c1.8-1,3.9-3,6.3-5.9v13.4c-4.1,2.1-8.2,3.2-12.3,3.2
		c-6.8,0-12.4-2.2-17-6.6c-4.6-4.4-6.8-9.9-6.8-16.4c0-6.5,2.3-12.1,6.9-16.5c4.6-4.5,10.3-6.7,17-6.7
		C537.9,724.4,542,725.4,545.8,727.5z"/>
	<path d="M565.7,725.6v25.1c0,7.3,2.9,10.9,8.6,10.9c5.7,0,8.6-3.6,8.6-10.9v-25.1H593V751c0,3.5-0.4,6.5-1.3,9.1
		c-0.8,2.3-2.3,4.3-4.4,6.2c-3.4,3-7.8,4.5-13,4.5c-5.2,0-9.6-1.5-13-4.5c-2.1-1.8-3.6-3.9-4.5-6.2c-0.8-2-1.3-5.1-1.3-9.1v-25.4
		H565.7z"/>
	<path d="M615.9,693.5v76h-10.1v-76H615.9z"/>
	<path d="M661,725.6h10.2v43.8H661v-4.6c-4.2,3.9-8.6,5.8-13.4,5.8c-6.1,0-11.1-2.2-15-6.6c-3.9-4.5-5.9-10-5.9-16.7
		c0-6.6,2-12,5.9-16.4s8.8-6.6,14.8-6.6c5.1,0,9.7,2.1,13.7,6.3V725.6z M637,747.4c0,4.2,1.1,7.6,3.4,10.3c2.3,2.7,5.2,4,8.7,4
		c3.7,0,6.8-1.3,9.1-3.9c2.3-2.7,3.5-6.1,3.5-10.2s-1.2-7.5-3.5-10.2c-2.3-2.6-5.3-3.9-9-3.9c-3.5,0-6.4,1.3-8.7,4
		C638.1,740.2,637,743.5,637,747.4z"/>
	<path d="M694.4,735.1v34.4h-10.1v-34.4h-4.3v-9.4h4.3v-16.1h10.1v16.1h7.9v9.4H694.4z"/>
	<path d="M719.2,725.6v25.1c0,7.3,2.9,10.9,8.6,10.9c5.7,0,8.6-3.6,8.6-10.9v-25.1h10.1V751c0,3.5-0.4,6.5-1.3,9.1
		c-0.8,2.3-2.3,4.3-4.4,6.2c-3.4,3-7.8,4.5-13,4.5c-5.2,0-9.6-1.5-13-4.5c-2.1-1.8-3.6-3.9-4.5-6.2c-0.8-2-1.3-5.1-1.3-9.1v-25.4
		H719.2z"/>
	<path d="M769.4,725.6v25.1c0,7.3,2.9,10.9,8.6,10.9c5.7,0,8.6-3.6,8.6-10.9v-25.1h10.1V751c0,3.5-0.4,6.5-1.3,9.1
		c-0.8,2.3-2.3,4.3-4.4,6.2c-3.4,3-7.8,4.5-13,4.5c-5.2,0-9.6-1.5-13-4.5c-2.1-1.8-3.6-3.9-4.5-6.2c-0.8-2-1.3-5.1-1.3-9.1v-25.4
		H769.4z"/>
	<path d="M809.5,725.6h10.1v3.9c1.9-1.9,3.5-3.3,4.9-4c1.5-0.7,3.2-1.1,5.2-1.1c2.7,0,5.5,0.9,8.4,2.6l-4.6,9.3
		c-1.9-1.4-3.8-2.1-5.6-2.1c-5.5,0-8.3,4.2-8.3,12.5v22.7h-10.1V725.6z"/>
</g>
<g>
	<path d="M193.9,821.1l4.4-22.7l7.2,16.4l7.5-16.4l4,22.7h-3.3l-2-12.7l-6.2,13.7l-6.1-13.7l-2.3,12.8H193.9z"/>
	<path d="M260.5,815.9h-9l-2.4,5.1h-3.4l10.4-22.4l10.1,22.4h-3.5L260.5,815.9z M259.2,812.9l-3.1-7.2l-3.3,7.2H259.2z"/>
	<path d="M307.4,803.1l-2.6,1.5c-0.5-0.8-0.9-1.4-1.4-1.6c-0.5-0.3-1-0.4-1.8-0.4c-0.9,0-1.6,0.3-2.2,0.8c-0.6,0.5-0.9,1.1-0.9,1.9
		c0,1,0.8,1.9,2.3,2.5l2.1,0.9c1.7,0.7,3,1.5,3.8,2.5s1.2,2.2,1.2,3.7c0,1.9-0.6,3.5-1.9,4.8c-1.3,1.3-2.9,1.9-4.9,1.9
		c-1.8,0-3.3-0.5-4.5-1.6c-1.2-1.1-1.9-2.6-2.2-4.6l3.2-0.7c0.1,1.2,0.4,2.1,0.8,2.6c0.7,0.9,1.6,1.4,2.9,1.4c1,0,1.8-0.3,2.5-1
		s1-1.5,1-2.5c0-0.4-0.1-0.8-0.2-1.1s-0.3-0.7-0.5-0.9s-0.6-0.6-0.9-0.8s-0.8-0.5-1.4-0.7l-2-0.8c-2.9-1.2-4.3-3-4.3-5.4
		c0-1.6,0.6-2.9,1.8-4c1.2-1.1,2.7-1.6,4.5-1.6C304.1,799.5,306,800.7,307.4,803.1z"/>
	<path d="M350.3,803.1l-2.6,1.5c-0.5-0.8-0.9-1.4-1.4-1.6c-0.5-0.3-1-0.4-1.8-0.4c-0.9,0-1.6,0.3-2.2,0.8c-0.6,0.5-0.9,1.1-0.9,1.9
		c0,1,0.8,1.9,2.3,2.5l2.1,0.9c1.7,0.7,3,1.5,3.8,2.5s1.2,2.2,1.2,3.7c0,1.9-0.6,3.5-1.9,4.8c-1.3,1.3-2.9,1.9-4.9,1.9
		c-1.8,0-3.3-0.5-4.5-1.6c-1.2-1.1-1.9-2.6-2.2-4.6l3.2-0.7c0.1,1.2,0.4,2.1,0.8,2.6c0.7,0.9,1.6,1.4,2.9,1.4c1,0,1.8-0.3,2.5-1
		s1-1.5,1-2.5c0-0.4-0.1-0.8-0.2-1.1s-0.3-0.7-0.5-0.9s-0.6-0.6-0.9-0.8s-0.8-0.5-1.4-0.7l-2-0.8c-2.9-1.2-4.3-3-4.3-5.4
		c0-1.6,0.6-2.9,1.8-4c1.2-1.1,2.7-1.6,4.5-1.6C347.1,799.5,349,800.7,350.3,803.1z"/>
	<path d="M393.5,815.9h-9l-2.4,5.1h-3.4l10.4-22.4l10.1,22.4h-3.5L393.5,815.9z M392.2,812.9l-3.1-7.2l-3.3,7.2H392.2z"/>
	<path d="M438.3,810.1h8.7v0.7c0,1.6-0.2,3-0.6,4.2c-0.4,1.1-1,2.2-1.8,3.2c-2,2.2-4.5,3.3-7.5,3.3c-3,0-5.5-1.1-7.6-3.2
		c-2.1-2.1-3.2-4.7-3.2-7.7c0-3.1,1.1-5.7,3.2-7.8c2.1-2.1,4.7-3.2,7.8-3.2c1.6,0,3.2,0.3,4.6,1c1.4,0.7,2.7,1.8,4,3.3l-2.3,2.2
		c-1.7-2.3-3.8-3.5-6.3-3.5c-2.2,0-4.1,0.8-5.6,2.3c-1.5,1.5-2.3,3.4-2.3,5.7c0,2.4,0.8,4.3,2.5,5.8c1.6,1.4,3.3,2.1,5.1,2.1
		c1.6,0,3-0.5,4.2-1.6c1.2-1.1,1.9-2.3,2.1-3.8h-5.3V810.1z"/>
	<path d="M489.3,803h-8.5v5.1h8.2v3h-8.2v7.1h8.5v3h-11.6V800h11.6V803z"/>
	<path d="M523.3,812.5v8.6h-3.2V800h3.6c1.8,0,3.1,0.1,4,0.4c0.9,0.2,1.7,0.7,2.4,1.4c1.2,1.2,1.8,2.7,1.8,4.5
		c0,1.9-0.6,3.5-1.9,4.6s-3,1.7-5.2,1.7H523.3z M523.3,809.5h1.2c2.9,0,4.4-1.1,4.4-3.4c0-2.2-1.5-3.3-4.5-3.3h-1.1V809.5z"/>
	<path d="M569,812.1l6.5,9h-3.9l-6-8.6H565v8.6h-3.2V800h3.7c2.8,0,4.8,0.5,6,1.6c1.4,1.2,2.1,2.7,2.1,4.6c0,1.5-0.4,2.8-1.3,3.9
		S570.4,811.8,569,812.1z M565,809.7h1c3,0,4.5-1.2,4.5-3.5c0-2.2-1.5-3.2-4.4-3.2H565V809.7z"/>
	<path d="M617.7,815.9h-9l-2.4,5.1h-3.4l10.4-22.4l10.1,22.4h-3.5L617.7,815.9z M616.4,812.9l-3.1-7.2l-3.3,7.2H616.4z"/>
	<path d="M655.8,808.4l8.2-8.4h4.3l-9.5,9.6l9.6,11.6h-4.3l-7.6-9.4l-0.7,0.7v8.7h-3.2V800h3.2V808.4z"/>
	<path d="M704.7,803v18.1h-3.2V803h-4.9v-3h12.9v3H704.7z"/>
	<path d="M742.2,800v21.1H739V800H742.2z"/>
	<path d="M780.3,800v13.7c0,1.6-0.1,2.8-0.3,3.7c-0.2,0.9-0.6,1.7-1.2,2.3c-1.1,1.2-2.5,1.9-4.2,1.9c-1.3,0-2.6-0.3-3.7-1l1.6-2.7
		c0.8,0.5,1.5,0.8,2.2,0.8c0.9,0,1.6-0.4,2-1.1c0.4-0.7,0.6-2,0.6-3.8V800H780.3z"/>
	<path d="M815.2,808.4l8.2-8.4h4.3l-9.5,9.6l9.6,11.6h-4.3l-7.6-9.4l-0.7,0.7v8.7H812V800h3.2V808.4z"/>
</g>
</svg>
